<svg 
viewBox="-240 -160 1500 1300" 
xmlns="http://www.w3.org/2000/svg">
<defs>
  <clipPath 
    id="a">
      <path 
        fill="currentColor" 
        d="M867 624q-26 124-119.5 237t-217 19.5Q407 787 285 766T149 622.5Q135 500 178.5 399T307 232q85-66 211-121t193.5 65.5Q779 297 836 398.5T867 624Z"
      />
      </clipPath></defs><g clip-path="url(#a)"><path fill="#444cf7" d="M867 624q-26 124-119.5 237t-217 19.5Q407 787 285 766T149 622.5Q135 500 178.5 399T307 232q85-66 211-121t193.5 65.5Q779 297 836 398.5T867 624Z"/></g></svg>